# AST/ASF file generated using VICON BodyLanguage
# -----------------------------------------------
:version 1.10
:name VICON
:units
  mass 1.0
  length 0.45
  angle deg
:documentation
   .ast/.asf automatically generated from VICON data using
   VICON BodyBuilder and BodyLanguage model FoxedUp or BRILLIANT.MOD
:root
   order TX TY TZ RX RY RZ
   axis XYZ
   position 0 0 0  
   orientation 0 0 0 
:bonedata
  begin
     id 1 
     name lhipjoint
     direction 0.575328 -0.747301 0.332475 
     length 2.40933 
     axis 0 0 0  XYZ
  end
  begin
     id 2 
     name lfemur
     direction 0.34202 -0.939693 0  
     length 7.31453  
     axis 0 0 20  XYZ
    dof rx ry rz
    limits (-160.0 20.0)
           (-70.0 70.0)
           (-60.0 70.0)
  end
  begin
     id 3 
     name ltibia
     direction 0.34202 -0.939693 0   
     length 7.82185   
     axis 0 0 20   XYZ
    dof rx
    limits (-10.0 170.0)
  end
  begin
     id 4 
     name lfoot
     direction 0.0795993 -0.218697 0.972541   
     length 2.19173   
     axis -90 7.62852e-016 20   XYZ
    dof rx rz
    limits (-45.0 90.0)
           (-70.0 20.0)
  end
  begin
     id 5 
     name ltoes
     direction 1.53537e-011 -4.21894e-011 1   
     length 1.10023   
     axis -90 7.62852e-016 20   XYZ
    dof rx
    limits (-90.0 20.0)
  end
  begin
     id 6 
     name rhipjoint
     direction -0.513884 -0.783789 0.348708   
     length 2.29716  
     axis 0 0 0  XYZ 
  end
  begin
     id 7 
     name rfemur
     direction -0.34202 -0.939693 0   
     length 7.59573   
     axis 0 0 -20   XYZ
    dof rx ry rz
    limits (-160.0 20.0)
           (-70.0 70.0)
           (-70.0 60.0)
  end
  begin
     id 8 
     name rtibia
     direction -0.34202 -0.939693 0   
     length 7.66402   
     axis 0 0 -20   XYZ
    dof rx
    limits (-10.0 170.0)
 end
 begin
     id 9 
     name rfoot
     direction -0.137793 -0.378584 0.915253   
     length 2.27056  
     axis -90 -7.62852e-016 -20   XYZ
    dof rx rz
    limits (-45.0 90.0)
           (-20.0 70.0)
  end
  begin
     id 10 
     name rtoes
     direction -1.53493e-011 -4.22159e-011 1   
     length 1.11766   
     axis -90 -7.62852e-016 -20   XYZ
    dof rx
    limits (-90.0 20.0)
  end
  begin
     id 11 
     name lowerback
     direction -0.00732775 0.998356 -0.05685   
     length 2.16513   
     axis 0 0 0   XYZ
    dof rx ry rz
    limits (-20.0 45.0)
           (-30.0 30.0)
           (-30.0 30.0)
  end
  begin
     id 12 
     name upperback
     direction 0.0218081 0.999627 -0.0164647   
     length 2.16755   
     axis 0 0 0   XYZ
    dof rx ry rz
    limits (-20.0 45.0)
           (-30.0 30.0)
           (-30.0 30.0)
  end
  begin
     id 13 
     name thorax
     direction 0.02365 0.999661 0.0108914   
     length 2.16932   
     axis 0 0 0   XYZ
    dof rx ry rz
    limits (-20.0 45.0)
           (-30.0 30.0)
           (-30.0 30.0)
  end
  begin
     id 14 
     name lowerneck
     direction -0.0523929 0.978385 0.200044   
     length 1.63877   
     axis 0 0 0   XYZ
    dof rx ry rz
    limits (-20.0 45.0)
           (-30.0 30.0)
           (-30.0 30.0)
  end
  begin
     id 15 
     name upperneck
     direction 0.0448674 0.981321 -0.187074   
     length 1.69014   
     axis 0 0 0   XYZ
    dof rx ry rz
    limits (-20.0 45.0)
           (-30.0 30.0)
           (-30.0 30.0)
  end
  begin
     id 16
     name head
     direction 0.0199089 0.996118 -0.0857429  
     length 1.70094  
     axis 0 0 0   XYZ
    dof rx ry rz
    limits (-20.0 45.0)
           (-30.0 30.0)
           (-30.0 30.0)
  end
  begin
     id 17 
     name lclavicle
     direction 0.940366 0.30191 -0.156722  
     length 3.37521  
     axis 0 0 0   XYZ
    dof ry rz
    limits (-20.0 10.0)
           (0.0 20.0)
  end
  begin
     id 18 
     name lhumerus
     direction 1 -4.4897e-011 -1.7911e-027   
     length 5.25287   
     axis 180 -30 -90   XYZ
    dof rx ry rz
    limits (-60.0 90.0)
           (-90.0 90.0)
           (-90.0 90.0)
  end
  begin
     id 19
     name lradius
     direction 1 -4.48951e-011 1.04424e-027   
     length 3.51014   
     axis 180 -30 -90   XYZ
    dof rx
    limits (-10.0 170.0)
  end
  begin
     id 20
     name lwrist
     direction 1 -4.48997e-011 -9.5942e-028   
     length 1.75507   
     axis 8.48502e-016 90 90   XYZ
    dof ry
    limits (-180.0 0.0)
 end
  begin
     id 21 
     name lhand
     direction 1 -4.48831e-011 -1.90777e-027   
     length 0.706179   
     axis 1.22306e-015 90 90   XYZ
    dof rx rz
    limits (-90.0 90.0)
           (-45.0 45.0)
  end
  begin
     id 22 
     name lfingers
     direction 1 -4.49108e-011 -3.85244e-027   
     length 0.569339   
     axis 2.44611e-015 90 90   XYZ
    dof rx
    limits (0.0 90.0)
  end
  begin
     id 23
     name lthumb
     direction 0.707107 -6.34953e-011 0.707107   
     length 0.817461   
     axis -90 45 -1.62303e-014   XYZ
    dof rx rz
    limits (-45.0 45.0)
           (-45.0 45.0)
  end
  begin
     id 24 
     name rclavicle
     direction -0.905329 0.382405 -0.184787   
     length 3.30787  
     axis 0 0 0   XYZ 
    dof ry rz
    limits (-10.0 20.0)
           (-20.0 0.0)
  end
  begin
     id 25 
     name rhumerus
     direction -1 -4.48953e-011 -9.15316e-029  
     length 5.28721   
     axis 180 30 90   XYZ
    dof rx ry rz
    limits (-90.0 60.0)
           (-90.0 90.0)
           (-90.0 90.0)
  end
  begin
     id 26 
     name rradius
     direction -1 -4.48987e-011 9.37824e-028   
     length 3.50544   
     axis 180 30 90   XYZ
    dof rx
    limits (-10.0 170.0)
  end
  begin
     id 27 
     name rwrist
     direction -1 -4.48967e-011 -9.58414e-028   
     length 1.75272   
     axis 8.48502e-016 -90 -90   XYZ
    dof ry
    limits (-180.0 0.0)
  end
  begin
     id 28
     name rhand
     direction -1 -4.48904e-011 -1.91266e-027   
     length 0.884996   
     axis 1.22306e-015 -90 -90   XYZ
    dof rx rz
    limits (-90.0 90.0)
           (-45.0 45.0)
  end
  begin
     id 29
     name rfingers
     direction -1 -4.4909e-011 -3.85015e-027   
     length 0.713507   
     axis 2.44611e-015 -90 -90   XYZ
    dof rx
    limits (0.0 90.0)
  end
  begin
     id 30
     name rthumb
     direction -0.707107 -6.34853e-011 0.707107   
     length 1.02446   
     axis -90 -45 1.62303e-014   XYZ
    dof rx rz
    limits (-45.0 45.0)
           (-45.0 45.0)
  end
:hierarchy
  begin
    root lhipjoint rhipjoint lowerback
    lhipjoint lfemur
    lfemur ltibia
    ltibia lfoot
    lfoot ltoes
    rhipjoint rfemur
    rfemur rtibia
    rtibia rfoot
    rfoot rtoes
    lowerback upperback
    upperback thorax
    thorax lowerneck lclavicle rclavicle
    lowerneck upperneck
    upperneck head
    lclavicle lhumerus
    lhumerus lradius
    lradius lwrist
    lwrist lhand lthumb
    lhand lfingers
    rclavicle rhumerus
    rhumerus rradius
    rradius rwrist
    rwrist rhand rthumb
    rhand rfingers
  end

#!OML:ASF F:\twosubjects\two\Thursday\Session 1\justin.ASF
:FULLY-SPECIFIED
:DEGREES
165
root -0.972534 18.2751 20.8446 -0.771018 44.2975 1.42855
lowerback 1.68016 4.4848 -4.76986
upperback 3.14152 5.97514 1.24667
thorax 1.68348 2.89098 3.90007
lowerneck -12.244 16.2392 2.36001
upperneck 32.1861 25.5442 -3.47978
head 13.739 11.2704 2.31083
rclavicle 9.85475e-014 -1.92821e-014
rhumerus -29.3789 -21.5507 -77.2805
rradius 37.7557
rwrist -3.26568
rhand -22.3264 14.4091
rfingers 7.12502
rthumb 4.0936 -15.5313
lclavicle 9.85475e-014 -1.92821e-014
lhumerus -23.2963 3.79015 86.0033
lradius 37.92
lwrist -6.52238
lhand 1.24878 40.7433
lfingers 7.12502
lthumb 26.7859 68.8666
rfemur -22.7323 -12.1239 13.8539
rtibia 58.7274
rfoot -16.4995 -2.55582
rtoes -13.577
lfemur -10.9307 -3.05718 -22.4671
ltibia 20.9888
lfoot -11.719 -21.9018
ltoes -4.44351
166
root -0.967763 18.2907 20.9173 -0.480111 45.0099 1.46562
lowerback 1.46995 4.3433 -4.90609
upperback 3.12503 5.79549 1.31411
thorax 1.78264 2.79495 4.06587
lowerneck -12.1903 16.1347 1.90186
upperneck 31.9491 25.3991 -3.37257
head 13.5309 11.1989 2.3469
rclavicle -7.66315e-014 2.48481e-014
rhumerus -29.2333 -21.971 -76.9353
rradius 36.7513
rwrist -3.20517
rhand -22.2421 13.9746
rfingers 7.12502
rthumb 4.17501 -15.9642
lclavicle -7.66315e-014 2.48481e-014
lhumerus -23.3406 3.26814 86.2656
lradius 38.5115
lwrist -5.9061
lhand 0.438487 39.4328
lfingers 7.12502
lthumb 26.0103 67.6725
rfemur -22.8331 -10.7458 13.5247
rtibia 56.2073
rfoot -16.4431 -1.37567
rtoes -12.6715
lfemur -10.9969 -3.08614 -22.3473
ltibia 20.8434
lfoot -11.6951 -22.5911
ltoes -4.03881
167
root -0.970453 18.2954 21.0034 -1.37688 45.6255 0.397238
lowerback 1.657 4.24071 -4.41425
upperback 3.17997 5.64839 1.64354
thorax 1.76207 2.7289 4.12317
lowerneck -12.0806 15.9116 1.62442
upperneck 31.6497 25.1481 -3.58938
head 13.3695 11.0613 2.2328
rclavicle 7.93399e-014 -7.95139e-016
rhumerus -29.0864 -22.512 -76.5786
rradius 35.7492
rwrist -2.92975
rhand -21.8381 13.4221
rfingers 7.12502
rthumb 4.56514 -16.5087
lclavicle 7.93399e-014 -7.95139e-016
lhumerus -23.2982 3.25575 86.4568
lradius 38.9415
lwrist -6.04653
lhand 0.689016 39.1486
lfingers 7.12502
lthumb 26.2502 67.3529
rfemur -22.0814 -9.03981 14.0735
rtibia 53.3911
rfoot -16.5208 -0.470801
rtoes -12.2796
lfemur -10.5275 -2.93694 -21.3319
ltibia 20.4803
lfoot -11.8926 -23.3344
ltoes -3.8089
168
root -0.968865 18.2998 21.0819 -1.67507 46.2852 -0.0168323
lowerback 1.71671 4.20954 -4.20831
upperback 3.1881 5.60446 1.72775
thorax 1.75182 2.71084 4.09231
lowerneck -11.8694 15.5136 1.98034
upperneck 31.3004 24.6502 -4.25849
head 13.3287 10.8234 1.85045
rclavicle -3.61291e-014 -2.98177e-015
rhumerus -29.1369 -23.4103 -76.2141
rradius 34.932
rwrist -2.48542
rhand -21.6349 12.8907
rfingers 7.12502
rthumb 4.76136 -17.0358
lclavicle -3.61291e-014 -2.98177e-015
lhumerus -23.1373 3.1245 86.6149
lradius 39.6023
lwrist -6.91415
lhand 3.2244 41.0328
lfingers 7.12502
lthumb 28.675 68.852
rfemur -21.3982 -7.32273 14.0424
rtibia 50.5204
rfoot -16.542 0.287301
rtoes -12.4239
lfemur -10.3038 -2.90648 -20.8621
ltibia 20.308
lfoot -12.1294 -24.0563
ltoes -3.04306
169
root -0.962631 18.3032 21.1492 -0.754371 46.9788 0.774572
lowerback 1.43709 4.18309 -4.68959
upperback 3.11343 5.58162 1.48217
thorax 1.81425 2.69046 4.12566
lowerneck -12.3262 15.5645 2.6306
upperneck 32.1185 24.706 -4.08704
head 13.8445 10.8574 1.94442
rclavicle -4.64659e-014 9.93923e-015
rhumerus -29.3133 -24.4013 -75.9157
rradius 34.1587
rwrist -1.926
rhand -21.7069 12.6819
rfingers 7.12502
rthumb 4.69181 -17.2462
lclavicle -4.64659e-014 9.93923e-015
lhumerus -23.0543 2.25149 86.7323
lradius 40.2323
lwrist -6.68278
lhand 2.63829 40.9799
lfingers 7.12502
lthumb 28.1149 68.8924
rfemur -21.1678 -5.58681 12.9875
rtibia 47.5828
rfoot -16.2763 1.1588
rtoes -12.1944
lfemur -10.5096 -3.01169 -21.3356
ltibia 20.2074
lfoot -12.1405 -24.713
ltoes -1.85361
